<svg xmlns="http://www.w3.org/2000/svg" xmlns:xlink="http://www.w3.org/1999/xlink" viewBox="0,0,256,256" width="512px" height="512px" fill-rule="nonzero"><g fill="#999999" fill-rule="nonzero" stroke="none" stroke-width="1" stroke-linecap="butt" stroke-linejoin="miter" stroke-miterlimit="10" stroke-dasharray="" stroke-dashoffset="0" font-family="none" font-weight="none" font-size="none" text-anchor="none" style="mix-blend-mode: normal"><g transform="scale(8,8)"><path d="M16,3c-7.2,0 -13,5.8 -13,13c0,7.2 5.8,13 13,13c7.2,0 13,-5.8 13,-13c0,-7.2 -5.8,-13 -13,-13zM16,5c6.1,0 11,4.9 11,11c0,6.1 -4.9,11 -11,11c-6.1,0 -11,-4.9 -11,-11c0,-6.1 4.9,-11 11,-11zM11.19922,10l-1.79883,4.30078l4.29883,1.79883l1.80078,-4.29883zM16,12.59961l-1.40039,3.40039l3.30078,1.40039l0.01563,-0.03516l0.08398,0.03516l1.5,-3.40039zM20,14.69922l-1.09961,2.70117l2.69922,1.09961l1.20117,-2.69922zM14.30078,16.59961l-0.30078,0.59961l1.09961,0.5l-2.5,5.30078h0.70117l2.39844,-4.90039l2.5,4.90039h0.70117l-2.30078,-4.59961l0.80078,0.29883l0.29883,-0.69922z"></path></g></g></svg>